# xmcd
#
# Track frame offsets:
#	150
#	11559
#	27641
#	40533
#	54332
#	64532
#	84018
#	101181
#	115561
#	148241
#
# Disc length: 2503 seconds
#
# Revision: 1
# Processed by: cddbd v1.5.2PL0 Copyright (c) Steve Scherf et al.
# Submitted via: audiograbber 1.83.01
#
DISCID=7709c50a
DTITLE=Various Artist - Fun Bluegrass
DYEAR=1900
DGENRE=Bluegrass
TTITLE0=Highway To Hell
TTITLE1=Shook Me All Night Long
TTITLE2=Dirty Deeds Done Dirt Cheap
TTITLE3=Hell's Bells
TTITLE4=Big Balls
TTITLE5=Walk This Way
TTITLE6=Feel Like Makin' Love
TTITLE7=Fat Bottom Girls
TTITLE8=Runnin' Free
TTITLE9=When You Don't Come Around
EXTD=
EXTT0=
EXTT1=
EXTT2=
EXTT3=
EXTT4=
EXTT5=
EXTT6=
EXTT7=
EXTT8=
EXTT9=
PLAYORDER=
